# xmcd
# 
# Track frame offsets:
#     150
#     16915
#     31668
#     45775
#     58906
#     77210
#     90304
#     104245
#     116990
#     134615
#     147605
#     160833
#     172804
# 
# Disc length: 2638
# 
# Revision: 4
# Processed by: cddbd v1.5.2PL0 Copyright (c) Steve Scherf et al.
# Submitted via: fre:ac v1.0.31
# 
DISCID=ab0a4c0d
DTITLE=Jimmie Vaughan - Plays Blues, ballads and Favorites
DYEAR=2010
DGENRE=Blues
TTITLE0=The Pleasure's all Mine
TTITLE1=Come Love
TTITLE2=I'm Leavin' It Up To You
TTITLE3=Comin' and Goin'
TTITLE4=Wheel Of Fortune
TTITLE5=How Can You Be So Mean
TTITLE6=Just A Little Bit
TTITLE7=I Miss You So
TTITLE8=RM Blues
TTITLE9=Roll, Roll, Roll
TTITLE10=Send Me Some Lovin'
TTITLE11=(She's Got The) Blues For Sale
TTITLE12=Funny How Time Slips Away
EXTD=
EXTT0=
EXTT1=
EXTT2=
EXTT3=
EXTT4=
EXTT5=
EXTT6=
EXTT7=
EXTT8=
EXTT9=
EXTT10=
EXTT11=
EXTT12=
PLAYORDER=
